<svg width="48" height="48" viewBox="0 0 48 48" fill="none" xmlns="http://www.w3.org/2000/svg">
<g clip-path="url(#clip0_266_7135)">
<rect width="48" height="48" rx="24" fill="#FFE75C"/>
<path d="M19.4748 15.7303C19.8929 14.5037 19.2112 13.1615 17.9523 12.7326C16.6934 12.3034 15.334 12.95 14.9161 14.1766C14.4979 15.4033 15.1796 16.7455 16.4385 17.1745C17.6974 17.6034 19.0568 16.957 19.4748 15.7303Z" fill="#2A39D4"/>
<path d="M32.7833 39.3823C34.8852 39.7348 37.3109 40.9356 40.0737 44.8485C42.0765 43.282 42.9115 43.8593 45.053 46.2189C47.1945 48.5786 51.883 53.104 52.9846 54.5735C54.0862 56.0431 54.7318 58.98 51.0017 60.6698C47.2717 62.3597 41.5477 57.7043 38.5844 55.0538C35.621 52.4034 31.5781 49.2241 31.5781 49.2241L32.7833 39.3823Z" fill="#2331B5"/>
<path d="M44.1933 45.3029C44.7485 46.5675 45.4756 48.4028 45.7752 49.9296C46.2027 52.0976 45.2024 53.2212 43.3341 54.4286C41.6288 55.5302 40.7827 55.2372 39.9698 54.4088C39.9211 54.3667 39.8585 54.3447 39.7944 54.3466C39.7303 54.3486 39.6692 54.3746 39.6234 54.4198C39.5776 54.4647 39.5505 54.5253 39.5472 54.5894C39.5441 54.6533 39.565 54.7163 39.6062 54.7657C40.0154 55.229 40.5732 55.5353 41.1837 55.6316C41.8888 55.7175 42.6753 55.4597 43.6073 54.856C45.2465 53.7963 46.8041 52.536 46.2732 49.8305C46.0614 48.8465 45.7728 47.8806 45.4095 46.9421C45.2698 46.5668 45.057 46.2231 44.7838 45.9308C44.5723 45.6972 44.3277 45.4395 44.1933 45.3029Z" fill="#3442D9"/>
<path d="M25.0778 37.5947C32.8373 36.3686 38.2325 29.7118 37.1287 22.7263C36.0249 15.741 28.8398 11.0721 21.0803 12.2985C13.321 13.5246 7.92549 20.1814 9.02952 27.1669C10.1333 34.1522 17.3185 38.8208 25.0778 37.5947Z" fill="#FF78B9"/>
<path d="M13.3527 22.7862C13.0112 25.5755 14.0467 28.2105 15.6639 28.6754C17.0916 29.0852 17.8671 27.7148 18.2527 25.0291C18.3518 24.3329 18.473 23.6366 18.6052 22.9448C19.0767 20.4486 18.3408 18.9967 16.8977 18.5824C15.2805 18.1176 13.692 19.9991 13.3527 22.7862Z" fill="white"/>
<path d="M25.6247 24.4736C25.3845 24.0616 25.2713 23.5877 25.299 23.1116C25.3268 22.6354 25.4947 22.178 25.7811 21.7967C28.5616 18.1459 30.6921 18.2715 32.2101 18.5315C33.8867 18.8267 34.6887 20.3646 33.0077 23.806C34.5499 25.9387 33.5871 27.6044 31.0248 27.5515C28.8171 27.4898 27.1537 27.1086 25.6247 24.4736Z" fill="#3F2936"/>
<path d="M37.4679 65.1451C38.9947 55.6603 36.1019 54.0717 36.1569 51.2142C36.212 48.3566 36.3927 44.4811 33.7731 39.9777C33.7731 39.9777 34.5949 36.1706 35.1236 33.6016C35.1443 33.5014 35.1421 33.3978 35.1168 33.2985C35.0917 33.1993 35.0443 33.107 34.9784 33.0288C34.9126 32.9504 34.8295 32.8882 34.7361 32.8466C34.6425 32.805 34.5407 32.7851 34.4384 32.7886C32.3672 32.8576 30.2939 32.7285 28.2474 32.4031C24.7222 31.8677 19.9809 30.9247 14.2657 35.2673L15.6472 37.7877L15.5084 37.9728C15.411 38.1026 15.3431 38.252 15.3094 38.4106C15.2759 38.5695 15.2775 38.7336 15.3138 38.8916C15.3504 39.0495 15.4211 39.1978 15.5209 39.3256C15.6207 39.4536 15.7472 39.558 15.8917 39.6318L16.187 39.7839C16.187 39.7839 11.1923 42.0245 11.807 48.5373C12.4217 55.05 10.1986 61.0141 12.3093 63.1887C12.7394 63.6245 13.2732 63.9437 13.8604 64.1167C14.4477 64.2898 15.0693 64.3108 15.667 64.1779L25.7137 71.2106C29.1044 76.0136 34.0551 81.5261 34.0551 81.5261L28.525 91.2467L36.1569 84.7538C41.1693 75.7646 42.8591 85.5359 44.2868 81.3763C45.7145 77.2166 43.1389 74.3171 37.4679 65.1451Z" fill="#2331B5"/>
<path d="M35.0213 34.0792C32.871 34.5199 30.1434 34.1696 26.9113 33.6804C23.4412 33.1539 20.4206 32.6978 14.5732 35.8308L15.3069 37.1703C20.6916 34.2819 23.3553 34.6829 26.6799 35.1874C29.7644 35.6545 32.4237 35.9916 34.682 35.681C34.801 35.1434 34.9156 34.597 35.0213 34.0792Z" fill="#3442D9"/>
<path d="M29.8109 63.7258C29.8777 63.7339 29.9451 63.7152 29.9982 63.674C30.0515 63.6328 30.0863 63.5722 30.0951 63.5054C30.7297 58.8633 29.5289 53.8928 28.9935 51.9716C28.4425 49.9949 28.2099 47.9428 28.3039 45.8929C28.4141 43.2138 28.1056 41.0877 27.8633 40.2505L29.7801 32.5943L29.2579 32.537L27.3213 40.2659L27.3433 40.3342C27.5636 41.059 27.8941 43.1984 27.784 45.8753C27.6877 47.9789 27.9272 50.0843 28.4934 52.1126C29.0288 54.003 30.2097 58.8919 29.595 63.4393C29.5902 63.4724 29.5921 63.5059 29.6005 63.5383C29.6089 63.5704 29.6234 63.6006 29.6435 63.6273C29.6635 63.6539 29.6886 63.6764 29.7173 63.6932C29.7462 63.7101 29.7779 63.7211 29.8109 63.7258Z" fill="black"/>
<path d="M23.0515 63.3822C23.1969 62.5185 22.439 59.2203 21.3374 56.7615C20.2358 54.3027 19.7224 52.5974 18.3278 53.1879C16.9331 53.7784 13.6503 55.3911 13.6503 55.3911C13.6503 55.3911 16.3911 52.4719 17.9114 50.7027C21.247 46.8162 20.9959 40.8631 16.1862 39.8033C11.9539 41.5108 11.1056 43.3285 6.54274 49.4975C1.97987 55.6665 -1.12887 62.4965 2.55051 65.8983C6.22989 69.3001 10.4116 67.7754 18.1295 65.4687C21.4343 64.4816 22.9061 64.2613 23.0515 63.3976" fill="#2331B5"/>
<path d="M38.347 42.5156C38.1943 42.5156 38.0478 42.4559 37.9387 42.3492C37.8297 42.2426 37.7667 42.0974 37.7631 41.9449C37.6036 35.7739 38.0077 29.6014 38.9705 23.504C38.987 23.4031 38.9793 23.2995 38.9482 23.2022C38.917 23.1048 38.8632 23.0162 38.7914 22.9435C38.7193 22.8708 38.6312 22.8164 38.534 22.7842C38.4369 22.7523 38.3335 22.7437 38.2324 22.7593L30.7767 23.9028C30.6989 23.9193 30.6185 23.92 30.5405 23.9043C30.4625 23.8889 30.3885 23.8576 30.3229 23.8122C30.2574 23.7671 30.2019 23.7089 30.1598 23.6415C30.1175 23.5741 30.0895 23.4987 30.0774 23.42C30.0655 23.3414 30.0697 23.2612 30.0898 23.1843C30.1098 23.1072 30.1455 23.0351 30.1944 22.9724C30.2435 22.9098 30.3048 22.8578 30.3746 22.8195C30.4442 22.7813 30.5211 22.758 30.6005 22.7505L38.0562 21.6048C38.3395 21.5614 38.629 21.5856 38.9011 21.6755C39.1732 21.7657 39.4202 21.9186 39.6218 22.1224C39.8234 22.3262 39.9738 22.5747 40.0609 22.8479C40.1481 23.1209 40.1693 23.4106 40.1228 23.6935C39.1716 29.7195 38.7729 35.8198 38.9308 41.9185C38.9337 42.0732 38.8755 42.2228 38.7685 42.3347C38.6616 42.4464 38.5149 42.5116 38.3602 42.5156H38.347Z" fill="#66BCFF"/>
<path d="M33.6345 41.8634C34.1831 43.2735 35.1459 45.8094 35.3177 46.6157C35.2494 47.8385 34.941 49.9206 34.8396 50.5815C34.8317 50.6377 34.8445 50.695 34.8758 50.7424C34.907 50.79 34.9544 50.8243 35.0093 50.8393C36.9459 51.3857 37.8052 51.5311 38.6093 51.5135C39.5503 51.4496 40.4867 51.3313 41.414 51.1588C41.4581 51.1511 41.5004 51.1348 41.5383 51.1105C41.5762 51.0863 41.6088 51.055 41.6346 51.018C41.6601 50.9812 41.6782 50.9396 41.6877 50.8957C41.6969 50.8517 41.6976 50.8063 41.6894 50.7622C41.2378 48.299 40.9712 46.5078 40.9712 46.5078C41.1695 43.5467 41.4405 41.2201 41.5352 40.4225C41.5447 40.3452 41.5244 40.2669 41.4779 40.2042C41.4317 40.1414 41.3629 40.0988 41.2862 40.0854C38.6137 39.5963 37.6774 39.4619 36.6815 39.4134C35.6857 39.3649 35.3023 39.8959 33.7534 41.3478C33.6845 41.4122 33.6364 41.4957 33.6151 41.5876C33.5939 41.6792 33.6008 41.7753 33.6345 41.8634Z" fill="white"/>
<path d="M41.3605 50.9165C41.3605 50.9165 41.6624 51.0729 41.4134 51.1567C41.4577 51.149 41.5 51.1326 41.5377 51.1084C41.5756 51.0842 41.6084 51.0529 41.6339 51.0159C41.6595 50.9791 41.6776 50.9374 41.687 50.8936C41.6963 50.8495 41.6969 50.8042 41.6888 50.7601C41.2371 48.2969 40.9705 46.5057 40.9705 46.5057C41.1688 43.5445 41.4398 41.2179 41.5346 40.4204C41.5443 40.343 41.5238 40.2648 41.4773 40.202C41.431 40.1392 41.3623 40.0967 41.2856 40.0833C38.6153 39.5942 37.6767 39.4598 36.6809 39.4113C36.4713 39.3979 36.2612 39.421 36.0596 39.4796L37.9521 45.1727L37.1744 50.13L41.3605 50.9165Z" fill="#FFC619"/>
<path d="M37.4755 50.3103C37.7575 52.1236 38.0329 53.4323 39.0971 53.798C40.1613 54.1638 41.6198 53.201 43.5146 51.7182C45.4093 50.2354 44.9863 48.7416 44.4201 47.3294C43.8539 45.9171 43.9596 44.2184 43.151 43.4142C42.1296 42.4691 41.0192 41.6248 39.8352 40.8938C38.8658 40.3055 38.2709 40.2328 36.5017 41.7971C34.7325 43.3614 33.7521 44.2471 33.9306 44.9741C34.0683 45.4941 34.2368 46.0055 34.4351 46.5054C33.6662 47.1311 33.5758 47.7017 33.7939 48.4662C34.0121 49.2307 34.0253 49.9115 35.497 50.0922C36.9688 50.2729 37.4755 50.3103 37.4755 50.3103Z" fill="#FF78B9"/>
<path d="M34.5285 46.4812C34.4671 46.4807 34.4074 46.4609 34.3578 46.4246C34.308 46.3882 34.2712 46.3373 34.252 46.2787C34.2331 46.2203 34.2331 46.1573 34.2518 46.0987C34.2705 46.0401 34.3073 45.989 34.3567 45.9524C36.756 44.2097 38.8535 42.6476 38.8733 42.63C38.9037 42.6029 38.9392 42.5824 38.9777 42.5698C39.0165 42.557 39.0573 42.5526 39.0976 42.5566C39.1381 42.5608 39.1773 42.5731 39.2126 42.5929C39.2481 42.613 39.2789 42.6399 39.3034 42.6725C39.3276 42.7049 39.345 42.7421 39.3543 42.7818C39.3635 42.8212 39.3644 42.8624 39.3569 42.9023C39.3494 42.9421 39.3338 42.98 39.3106 43.0138C39.2877 43.0472 39.2582 43.0757 39.2236 43.097C39.2016 43.1125 37.1019 44.6789 34.7004 46.4261C34.6504 46.4622 34.5902 46.4816 34.5285 46.4812Z" fill="black"/>
<path d="M15.0418 23.1694C14.7994 24.3658 15.077 25.4322 15.6587 25.5511C16.1478 25.6481 16.5928 25.2427 16.7471 24.1168C16.8198 23.6412 16.937 23.1736 17.0974 22.72C17.4323 21.7484 17.0203 21.3099 16.5334 21.213C15.9517 21.094 15.2819 21.9621 15.0418 23.1694Z" fill="black"/>
<path d="M25.9179 9.81742C26.9292 9.72268 28.3525 10.3969 28.6213 11.8157C28.8901 13.2346 29.0157 15.3409 26.6384 15.4312C25.6337 15.4643 24.6709 14.9091 23.2542 13.4902C22.2364 12.4701 21.051 12.0074 18.2551 13.0209C16.9508 11.8774 17.9775 9.45389 21.6679 11.1768C20.2402 8.81495 20.9387 7.35642 22.1901 7.08542C23.4415 6.81443 25.246 7.24626 25.9179 9.81742Z" fill="#2A39D4"/>
<path d="M25.4023 13.9903C24.6774 12.8424 24.1751 11.3861 23.7322 10.1016C23.2519 8.70473 22.8509 7.54805 22.2737 7.06995L22.1834 7.08537C21.9531 7.13318 21.7357 7.22858 21.5444 7.36518C21.6063 7.34579 21.672 7.34116 21.7361 7.35196C22.2847 7.46432 22.754 8.82591 23.2519 10.2668C23.7036 11.5887 24.2169 13.0649 24.9726 14.2635C25.2174 14.6455 25.5019 15.0007 25.8209 15.3232C26.0835 15.4032 26.3574 15.4398 26.6317 15.4312H26.6801C26.1838 15.0183 25.753 14.5325 25.4023 13.9903Z" fill="black"/>
<path d="M28.2687 14.7682C28.1248 14.9365 27.9488 15.0744 27.751 15.1736C27.8442 13.2252 27.2026 11.3131 25.9531 9.81532C26.1829 9.80012 26.414 9.81951 26.6383 9.87261C27.6915 11.288 28.2628 13.0038 28.2687 14.7682Z" fill="black"/>
<path d="M19.0284 40.4271H18.9931L16.1488 40.079C16.0769 40.0638 16.0135 40.0221 15.9707 39.9622C15.9282 39.9023 15.9097 39.8287 15.9187 39.7558C15.928 39.6828 15.9641 39.6161 16.0203 39.5687C16.0763 39.5211 16.1481 39.4964 16.2215 39.4995L19.0636 39.8476C19.1407 39.8523 19.213 39.8875 19.2641 39.9452C19.3154 40.0032 19.3414 40.079 19.3368 40.1561C19.3322 40.2332 19.2972 40.3052 19.2392 40.3566C19.1813 40.4077 19.1055 40.4339 19.0284 40.4293V40.4271Z" fill="black"/>
<path d="M17.6401 22.1556L15.8511 22.7681L18.0829 24.1098L17.6401 22.1556Z" fill="white"/>
<path d="M31.5622 24.9382C31.5111 24.9377 31.4609 24.9243 31.4166 24.8987C31.3721 24.8732 31.3351 24.8368 31.3088 24.7928C31.2846 24.7487 30.6236 23.6912 28.7928 23.6912C28.7157 23.694 28.6405 23.6663 28.5839 23.6138C28.5273 23.5614 28.4938 23.4885 28.4909 23.4114C28.4881 23.3342 28.5158 23.2591 28.5683 23.2025C28.6209 23.1459 28.6936 23.1124 28.7707 23.1095C30.2557 22.9927 30.9167 22.3714 31.2846 21.9132C31.3351 21.8587 31.404 21.8255 31.478 21.82C31.5519 21.8145 31.6252 21.8371 31.6832 21.8836C31.7409 21.9299 31.779 21.9964 31.7898 22.0698C31.8004 22.1432 31.783 22.2179 31.7407 22.2789C31.3584 22.7581 30.8592 23.1307 30.291 23.3607C30.9114 23.5667 31.447 23.9708 31.8156 24.5108C31.8541 24.5777 31.8647 24.6573 31.8449 24.732C31.8251 24.8067 31.7766 24.8705 31.7098 24.9095C31.664 24.9316 31.6131 24.9415 31.5622 24.9382Z" fill="black"/>
</g>
<defs>
<clipPath id="clip0_266_7135">
<rect width="48" height="48" rx="24" fill="white"/>
</clipPath>
</defs>
</svg>
