<svg width="40" height="40" viewBox="0 0 40 40" fill="none" xmlns="http://www.w3.org/2000/svg">
<path d="M20 0.5C30.7696 0.5 39.5 9.23045 39.5 20C39.5 30.7696 30.7696 39.5 20 39.5C9.23045 39.5 0.5 30.7696 0.5 20C0.5 9.23045 9.23045 0.5 20 0.5Z" stroke="#1E40AF"/>
<path d="M17 23C17 20.1716 17 18.7574 17.8787 17.8787C18.7574 17 20.1716 17 23 17H24C26.8284 17 28.2426 17 29.1213 17.8787C30 18.7574 30 20.1716 30 23V24C30 26.8284 30 28.2426 29.1213 29.1213C28.2426 30 26.8284 30 24 30H23C20.1716 30 18.7574 30 17.8787 29.1213C17 28.2426 17 26.8284 17 24V23Z" stroke="#1E40AF" stroke-width="1.5" stroke-linecap="round" stroke-linejoin="round"/>
<path d="M24.9999 17C24.9975 14.0429 24.9528 12.5112 24.092 11.4624C23.9258 11.2599 23.7401 11.0742 23.5376 10.908C22.4312 10 20.7875 10 17.5 10C14.2125 10 12.5688 10 11.4624 10.908C11.2599 11.0742 11.0742 11.2599 10.908 11.4624C10 12.5688 10 14.2125 10 17.5C10 20.7875 10 22.4312 10.908 23.5376C11.0742 23.7401 11.2599 23.9258 11.4624 24.092C12.5112 24.9528 14.0429 24.9975 17 24.9999" stroke="#1E40AF" stroke-width="1.5" stroke-linecap="round" stroke-linejoin="round"/>
</svg>
