<svg width="20" height="20" viewBox="0 0 20 20" fill="none" xmlns="http://www.w3.org/2000/svg">
<path d="M8.33329 3.33337L6.66663 5.00004" stroke="#777777" stroke-width="2" stroke-linecap="round" stroke-linejoin="round"/>
<path d="M14.1666 15.8334V17.5" stroke="#777777" stroke-width="2" stroke-linecap="round" stroke-linejoin="round"/>
<path d="M1.66663 10H18.3333" stroke="#777777" stroke-width="2" stroke-linecap="round" stroke-linejoin="round"/>
<path d="M5.83337 15.8334V17.5" stroke="#777777" stroke-width="2" stroke-linecap="round" stroke-linejoin="round"/>
<path d="M7.50004 4.1667L6.35087 3.01754C6.10988 2.77543 5.8039 2.60834 5.46994 2.53649C5.13598 2.46464 4.78835 2.4911 4.46912 2.61268C4.14988 2.73425 3.87272 2.94573 3.67115 3.22153C3.46959 3.49733 3.35226 3.82562 3.33337 4.1667V14.1667C3.33337 14.6087 3.50897 15.0327 3.82153 15.3452C4.13409 15.6578 4.55801 15.8334 5.00004 15.8334H15C15.4421 15.8334 15.866 15.6578 16.1786 15.3452C16.4911 15.0327 16.6667 14.6087 16.6667 14.1667V10" stroke="#777777" stroke-width="2" stroke-linecap="round" stroke-linejoin="round"/>
</svg>
