<svg width="20" height="20" viewBox="0 0 20 20" fill="none" xmlns="http://www.w3.org/2000/svg">
<path d="M2.5 16.6667V10C2.5 9.55801 2.67559 9.13409 2.98816 8.82153C3.30072 8.50897 3.72464 8.33337 4.16667 8.33337H15.8333C16.2754 8.33337 16.6993 8.50897 17.0118 8.82153C17.3244 9.13409 17.5 9.55801 17.5 10V16.6667" stroke="#777777" stroke-width="2" stroke-linecap="round" stroke-linejoin="round"/>
<path d="M4.16663 8.33337V5.00004C4.16663 4.55801 4.34222 4.13409 4.65478 3.82153C4.96734 3.50897 5.39127 3.33337 5.83329 3.33337H14.1666C14.6087 3.33337 15.0326 3.50897 15.3451 3.82153C15.6577 4.13409 15.8333 4.55801 15.8333 5.00004V8.33337" stroke="#777777" stroke-width="2" stroke-linecap="round" stroke-linejoin="round"/>
<path d="M2.5 15H17.5" stroke="#777777" stroke-width="2" stroke-linecap="round" stroke-linejoin="round"/>
</svg>
