<svg width="22" height="22" viewBox="0 0 22 22" fill="none" xmlns="http://www.w3.org/2000/svg">
<path d="M12.4791 2.19418L14.2389 5.74288C14.4789 6.23687 15.1188 6.7107 15.6588 6.80143L18.8484 7.33575C20.8882 7.67853 21.3682 9.1706 19.8983 10.6425L17.4186 13.1427C16.9986 13.5661 16.7687 14.3827 16.8986 14.9675L17.6086 18.0625C18.1685 20.5123 16.8786 21.46 14.7289 20.1796L11.7392 18.3952C11.1993 18.0726 10.3094 18.0726 9.75936 18.3952L6.76973 20.1796C4.62996 21.46 3.33011 20.5022 3.89005 18.0625L4.59997 14.9675C4.72995 14.3827 4.49998 13.5661 4.08002 13.1427L1.6003 10.6425C0.140464 9.1706 0.610414 7.67853 2.65018 7.33575L5.83983 6.80143C6.36977 6.7107 7.0097 6.23687 7.24967 5.74288L9.00946 2.19418C9.96936 0.268607 11.5292 0.268607 12.4791 2.19418Z" stroke="#FFFFFA" stroke-width="1.5" stroke-linecap="round" stroke-linejoin="round"/>
</svg>
