<svg width="40" height="40" viewBox="0 0 40 40" fill="none" xmlns="http://www.w3.org/2000/svg">
<path d="M0 20C0 8.95431 8.95431 0 20 0C31.0457 0 40 8.95431 40 20C40 31.0457 31.0457 40 20 40C8.95431 40 0 31.0457 0 20Z" fill="#1E40AF"/>
<path d="M19.1002 11C15.4506 11.0066 13.5394 11.0962 12.3181 12.3175C11 13.6356 11 15.757 11 19.9997C11 24.2425 11 26.3639 12.3181 27.6819C13.6361 29 15.7575 29 20.0003 29C24.243 29 26.3644 29 27.6825 27.6819C28.9038 26.4606 28.9934 24.5494 29 20.8998" stroke="#FFFFFA" stroke-width="1.5" stroke-linecap="round" stroke-linejoin="round"/>
<path d="M28.9995 14.0253L28 14.0228C24.2634 14.0133 22.3951 14.0086 21.0817 14.9527C20.6452 15.2664 20.2622 15.6484 19.9474 16.0841C19 17.3951 19 19.2634 19 23M26.0711 17C26.0711 17 28.0596 15.3531 28.8249 14.4468C28.9352 14.3162 28.9934 14.1711 28.9995 14.0253C29.0062 13.8627 28.9481 13.6991 28.8251 13.5533C28.0599 12.6469 26.0711 11 26.0711 11" stroke="#FFFFFA" stroke-width="1.5" stroke-linecap="round" stroke-linejoin="round"/>
</svg>
